<?xml version="1.0" encoding="UTF-8"?>
<svg width="30px" height="29px" viewBox="0 0 30 29" version="1.1" xmlns="http://www.w3.org/2000/svg" xmlns:xlink="http://www.w3.org/1999/xlink">
    <!-- Generator: Sketch 63.1 (92452) - https://sketch.com -->
    <title>Group 26</title>
    <desc>Created with Sketch.</desc>
    <g id="Page-1" stroke="none" stroke-width="1" fill="none" fill-rule="evenodd">
        <g id="D-Homepage" transform="translate(-687.000000, -6561.000000)">
            <g id="Group-26" transform="translate(687.825000, 6561.000000)">
                <path d="M14.1741667,28.3458333 C22.0016667,28.3458333 28.3475,22.0008333 28.3475,14.1725 C28.3475,6.34583333 22.0016667,-2.4158453e-13 14.1741667,-2.4158453e-13 C6.34583333,-2.4158453e-13 8.36664071e-13,6.34583333 8.36664071e-13,14.1725 C8.36664071e-13,22.0008333 6.34583333,28.3458333 14.1741667,28.3458333" id="Fill-171" fill="#EE2E24"></path>
                <path d="M14.5866667,6.66666667 C10.6733333,6.66666667 7.5,9.83916667 7.5,13.7533333 C7.5,16.6541667 9.245,19.1475 11.7425,20.2433333 C11.7225,19.7491667 11.7391667,19.1541667 11.865,18.6158333 C12.0016667,18.0408333 12.7766667,14.755 12.7766667,14.755 C12.7766667,14.755 12.5508333,14.3025 12.5508333,13.6333333 C12.5508333,12.5833333 13.16,11.7991667 13.9175,11.7991667 C14.5616667,11.7991667 14.8733333,12.2833333 14.8733333,12.8633333 C14.8733333,13.5108333 14.46,14.48 14.2475,15.3775 C14.07,16.13 14.6241667,16.7425 15.3658333,16.7425 C16.7083333,16.7425 17.6125,15.0183333 17.6125,12.975 C17.6125,11.4225 16.5666667,10.26 14.6641667,10.26 C12.515,10.26 11.1758333,11.8625 11.1758333,13.6525 C11.1758333,14.2708333 11.3575,14.7058333 11.6425,15.0425 C11.7741667,15.1983333 11.7916667,15.26 11.7441667,15.4383333 C11.7108333,15.5675 11.6325,15.8825 11.6,16.0066667 C11.5525,16.1858333 11.4075,16.2508333 11.2458333,16.1841667 C10.255,15.78 9.79416667,14.6958333 9.79416667,13.4766667 C9.79416667,11.4641667 11.4916667,9.04916667 14.8583333,9.04916667 C17.5641667,9.04916667 19.345,11.0083333 19.345,13.1091667 C19.345,15.8891667 17.8,17.9658333 15.5208333,17.9658333 C14.7566667,17.9658333 14.0366667,17.5525 13.79,17.0833333 C13.79,17.0833333 13.3783333,18.7158333 13.2916667,19.0308333 C13.1416667,19.5766667 12.8475,20.1233333 12.5783333,20.5483333 C13.2158333,20.7366667 13.8891667,20.8391667 14.5866667,20.8391667 C18.5,20.8391667 21.6725,17.6666667 21.6725,13.7533333 C21.6725,9.83916667 18.5,6.66666667 14.5866667,6.66666667" id="Fill-172" fill="#FFFFFE"></path>
            </g>
        </g>
    </g>
</svg>