<?xml version="1.0" encoding="UTF-8"?>
<svg width="30px" height="30px" viewBox="0 0 30 30" version="1.1" xmlns="http://www.w3.org/2000/svg" xmlns:xlink="http://www.w3.org/1999/xlink">
    <!-- Generator: Sketch 63.1 (92452) - https://sketch.com -->
    <title>Group 25</title>
    <desc>Created with Sketch.</desc>
    <g id="Page-1" stroke="none" stroke-width="1" fill="none" fill-rule="evenodd">
        <g id="D-Homepage" transform="translate(-651.000000, -6561.000000)">
            <g id="Group-25" transform="translate(651.018000, 6561.000000)">
                <path d="M14.5791429,29.1557143 C22.6302857,29.1557143 29.1565714,22.6294286 29.1565714,14.5774286 C29.1565714,6.52714286 22.6302857,1.43884904e-13 14.5791429,1.43884904e-13 C6.52714286,1.43884904e-13 1.0125234e-13,6.52714286 1.0125234e-13,14.5774286 C1.0125234e-13,22.6294286 6.52714286,29.1557143 14.5791429,29.1557143" id="Fill-169" fill="#EE2E24"></path>
                <path d="M22.3174286,10.8334286 C21.7808571,11.0717143 21.2031429,11.2328571 20.5971429,11.3048571 C21.216,10.9345714 21.6908571,10.3474286 21.9145714,9.648 C21.3351429,9.99085714 20.6948571,10.2402857 20.0108571,10.374 C19.4657143,9.792 18.6865714,9.42857143 17.8242857,9.42857143 C16.1708571,9.42857143 14.8294286,10.77 14.8294286,12.4242857 C14.8294286,12.6591429 14.8551429,12.8871429 14.9065714,13.1065714 C12.4165714,12.9814286 10.2094286,11.79 8.73085714,9.97542857 C8.47285714,10.4194286 8.32542857,10.9345714 8.32542857,11.4831429 C8.32542857,12.522 8.85428571,13.4391429 9.65828571,13.9765714 C9.168,13.962 8.70514286,13.8257143 8.30057143,13.6028571 L8.30057143,13.6397143 C8.30057143,15.0917143 9.33342857,16.3028571 10.7048571,16.5771429 C10.4537143,16.6474286 10.1888571,16.6825714 9.91542857,16.6825714 C9.72257143,16.6825714 9.534,16.6645714 9.35142857,16.6294286 C9.73285714,17.8191429 10.8385714,18.6857143 12.15,18.7088571 C11.1248571,19.5128571 9.83228571,19.992 8.42914286,19.992 C8.18742857,19.992 7.94828571,19.9782857 7.71428571,19.9508571 C9.04028571,20.7994286 10.6157143,21.2957143 12.3068571,21.2957143 C17.8182857,21.2957143 20.8311429,16.7314286 20.8311429,12.7722857 C20.8311429,12.642 20.8285714,12.5117143 20.8234286,12.384 C21.4088571,11.9614286 21.9171429,11.4342857 22.3174286,10.8334286" id="Fill-170" fill="#FFFFFE"></path>
            </g>
        </g>
    </g>
</svg>