<?xml version="1.0" encoding="UTF-8"?>
<svg width="30px" height="30px" viewBox="0 0 30 30" version="1.1" xmlns="http://www.w3.org/2000/svg" xmlns:xlink="http://www.w3.org/1999/xlink">
    <!-- Generator: Sketch 63.1 (92452) - https://sketch.com -->
    <title>Group 29</title>
    <desc>Created with Sketch.</desc>
    <g id="Page-1" stroke="none" stroke-width="1" fill="none" fill-rule="evenodd">
        <g id="D-Homepage" transform="translate(-795.000000, -6561.000000)">
            <g id="Group-29" transform="translate(795.701143, 6561.000000)">
                <path d="M14.5782857,29.1565714 C22.6302857,29.1565714 29.1565714,22.6285714 29.1565714,14.5774286 C29.1565714,6.52714286 22.6302857,1.17239551e-13 14.5782857,1.17239551e-13 C6.52542857,1.17239551e-13 -7.97584221e-13,6.52714286 -7.97584221e-13,14.5774286 C-7.97584221e-13,22.6285714 6.52542857,29.1565714 14.5782857,29.1565714" id="Fill-204" fill="#EE2E24"></path>
                <path d="M20.0151429,18.618 C20.0151429,19.3885714 19.3885714,20.0151429 18.618,20.0151429 L9.67457143,20.0151429 C8.904,20.0151429 8.27742857,19.3885714 8.27742857,18.618 L8.27742857,12.6497143 L10.4537143,12.6497143 C10.266,13.1125714 10.1605714,13.6174286 10.1605714,14.1462857 C10.1605714,16.344 11.9485714,18.1328571 14.1462857,18.1328571 C16.344,18.1328571 18.132,16.344 18.132,14.1462857 C18.132,13.6174286 18.0257143,13.1125714 17.8388571,12.6497143 L20.0151429,12.6497143 L20.0151429,18.618 Z M12.066,12.6497143 C12.5322857,12.0034286 13.29,11.58 14.1462857,11.58 C15.0025714,11.58 15.7602857,12.0034286 16.2265714,12.6497143 C16.5308571,13.0714286 16.7125714,13.5874286 16.7125714,14.1462857 C16.7125714,15.5605714 15.5605714,16.7117143 14.1462857,16.7117143 C12.732,16.7117143 11.5808571,15.5605714 11.5808571,14.1462857 C11.5808571,13.5874286 11.7625714,13.0714286 12.066,12.6497143 Z M19.4262857,8.53714286 L19.7485714,8.53628571 L19.7485714,11.0074286 L17.2851429,11.0151429 L17.2765714,8.544 L19.4262857,8.53714286 Z M18.618,6.85714286 L9.67457143,6.85714286 C8.12142857,6.85714286 6.85714286,8.12057143 6.85714286,9.67457143 L6.85714286,18.618 C6.85714286,20.172 8.12142857,21.4354286 9.67457143,21.4354286 L18.618,21.4354286 C20.1711429,21.4354286 21.4354286,20.172 21.4354286,18.618 L21.4354286,9.67457143 C21.4354286,8.12057143 20.1711429,6.85714286 18.618,6.85714286 L18.618,6.85714286 Z" id="Fill-244" fill="#FFFFFE"></path>
            </g>
        </g>
    </g>
</svg>