<?xml version="1.0" encoding="UTF-8"?>
<svg width="30px" height="30px" viewBox="0 0 30 30" version="1.1" xmlns="http://www.w3.org/2000/svg" xmlns:xlink="http://www.w3.org/1999/xlink">
    <!-- Generator: Sketch 63.1 (92452) - https://sketch.com -->
    <title>Group 28</title>
    <desc>Created with Sketch.</desc>
    <g id="Page-1" stroke="none" stroke-width="1" fill="none" fill-rule="evenodd">
        <g id="D-Homepage" transform="translate(-759.000000, -6561.000000)">
            <g id="Group-28" transform="translate(759.744857, 6561.000000)">
                <path d="M14.5782857,29.1557143 C22.6294286,29.1557143 29.1574286,22.6285714 29.1574286,14.5774286 C29.1574286,6.52628571 22.6294286,1.43884904e-13 14.5782857,1.43884904e-13 C6.52628571,1.43884904e-13 -8.73967565e-13,6.52628571 -8.73967565e-13,14.5774286 C-8.73967565e-13,22.6285714 6.52628571,29.1557143 14.5782857,29.1557143" id="Fill-175" fill="#EE2E24"></path>
                <path d="M21.4354286,17.1531429 L21.4354286,11.9408571 C21.4354286,11.9408571 21.4354286,9.42857143 18.9231429,9.42857143 L9.36857143,9.42857143 C9.36857143,9.42857143 6.85714286,9.42857143 6.85714286,11.9408571 L6.85714286,17.1531429 C6.85714286,17.1531429 6.85714286,19.6654286 9.36857143,19.6654286 L18.9231429,19.6654286 C18.9231429,19.6654286 21.4354286,19.6654286 21.4354286,17.1531429 M16.9765714,14.5542857 L12.204,17.3571429 L12.204,11.7505714 L16.9765714,14.5542857" id="Fill-176" fill="#FFFFFE"></path>
            </g>
        </g>
    </g>
</svg>