<?xml version="1.0" encoding="UTF-8"?>
<svg width="30px" height="30px" viewBox="0 0 30 30" version="1.1" xmlns="http://www.w3.org/2000/svg" xmlns:xlink="http://www.w3.org/1999/xlink">
    <!-- Generator: Sketch 63.1 (92452) - https://sketch.com -->
    <title>Group 27</title>
    <desc>Created with Sketch.</desc>
    <g id="Page-1" stroke="none" stroke-width="1" fill="none" fill-rule="evenodd">
        <g id="D-Homepage" transform="translate(-723.000000, -6561.000000)">
            <g id="Group-27" transform="translate(723.796286, 6561.000000)">
                <path d="M14.5782857,29.1565714 C22.6311429,29.1565714 29.1565714,22.6285714 29.1565714,14.5774286 C29.1565714,6.52714286 22.6311429,1.17239551e-13 14.5782857,1.17239551e-13 C6.52714286,1.17239551e-13 1.0125234e-13,6.52714286 1.0125234e-13,14.5774286 C1.0125234e-13,22.6285714 6.52714286,29.1565714 14.5782857,29.1565714" id="Fill-194" fill="#EE2E24"></path>
                <path d="M22.2925714,20.2431429 L19.0705714,20.2431429 L19.0705714,15.5374286 C19.0705714,14.3057143 18.5665714,13.4648571 17.4582857,13.4648571 C16.6105714,13.4648571 16.1391429,14.0322857 15.9197143,14.5791429 C15.8374286,14.7754286 15.8502857,15.0488571 15.8502857,15.3222857 L15.8502857,20.2431429 L12.6582857,20.2431429 C12.6582857,20.2431429 12.6994286,11.9074286 12.6582857,11.1497143 L15.8502857,11.1497143 L15.8502857,12.5768571 C16.0388571,11.9528571 17.0588571,11.0622857 18.6865714,11.0622857 C20.706,11.0622857 22.2925714,12.3702857 22.2925714,15.1868571 L22.2925714,20.2431429 Z M9.43028571,10.0122857 L9.40971429,10.0122857 C8.38114286,10.0122857 7.71428571,9.31714286 7.71428571,8.436 C7.71428571,7.53771429 8.40085714,6.85714286 9.45,6.85714286 C10.4982857,6.85714286 11.1428571,7.536 11.1634286,8.43342857 C11.1634286,9.31457143 10.4982857,10.0122857 9.43028571,10.0122857 Z M8.082,20.2431429 L10.9234286,20.2431429 L10.9234286,11.1497143 L8.082,11.1497143 L8.082,20.2431429 Z" id="Fill-195" fill="#FFFFFE"></path>
            </g>
        </g>
    </g>
</svg>